<?xml version="1.0" standalone="no"?>
<!DOCTYPE svg PUBLIC "-//W3C//DTD SVG 20010904//EN"
 "http://www.w3.org/TR/2001/REC-SVG-20010904/DTD/svg10.dtd">
<svg version="1.0" xmlns="http://www.w3.org/2000/svg"
 width="345.000000pt" height="401.000000pt" viewBox="0 0 345.000000 401.000000"
 preserveAspectRatio="xMidYMid meet">

<g transform="translate(0.000000,401.000000) scale(0.100000,-0.100000)"
fill="#000000" stroke="none">
<path d="M877 3488 l-847 -493 1 -995 0 -995 837 -487 c461 -268 844 -489 852
-492 9 -3 380 208 860 487 l845 493 2 995 3 994 -849 493 c-466 270 -850 492
-852 492 -2 0 -386 -222 -852 -492z m1670 -34 c450 -262 824 -481 831 -486 9
-8 12 -210 10 -971 l-3 -960 -828 -482 -828 -483 -827 482 -827 482 -2 965 -3
964 828 482 c455 265 828 482 829 483 1 0 370 -214 820 -476z"/>
<path d="M1712 2628 c3 -315 5 -363 18 -363 13 0 15 48 18 363 2 358 2 362
-18 362 -20 0 -20 -4 -18 -362z"/>
<path d="M1379 2622 c-160 -96 -265 -222 -325 -393 -32 -90 -44 -263 -24 -362
65 -335 358 -577 698 -577 119 0 201 19 317 75 173 83 300 232 367 431 31 92
33 305 4 399 -31 100 -94 210 -165 287 -67 72 -199 168 -231 168 -31 0 -32
-29 -2 -47 194 -117 280 -215 338 -382 102 -292 -7 -613 -265 -779 -75 -49
-141 -75 -244 -96 -96 -20 -145 -20 -243 0 -149 30 -311 128 -397 239 -48 63
-111 193 -128 265 -19 81 -17 252 5 324 54 179 177 333 329 412 32 17 47 31
47 44 0 28 -26 25 -81 -8z"/>
</g>
</svg>
